<svg xmlns="http://www.w3.org/2000/svg" version="1.1" x="0" y="0" viewBox="0 0 2048 2048" enable-background="new 0 0 2048 2048" xml:space="preserve"><path fill="#005bda" d="M1344 960c0-123.3-43.8-228.8-131.5-316.5C1124.8 555.8 1019.3 512 896 512s-228.8 43.8-316.5 131.5C491.8 731.2 448 836.7 448 960s43.8 228.8 131.5 316.5S772.7 1408 896 1408s228.8-43.8 316.5-131.5S1344 1083.3 1344 960zM1856 1792c0 34.7-12.7 64.7-38 90s-55.3 38-90 38c-36 0-66-12.7-90-38l-343-342c-119.3 82.7-252.3 124-399 124 -95.3 0-186.5-18.5-273.5-55.5s-162-87-225-150 -113-138-150-225S192 1055.3 192 960c0-95.3 18.5-186.5 55.5-273.5s87-162 150-225 138-113 225-150S800.7 256 896 256s186.5 18.5 273.5 55.5 162 87 225 150 113 138 150 225S1600 864.7 1600 960c0 146.7-41.3 279.7-124 399l343 343C1843.7 1726.7 1856 1756.7 1856 1792z"/></svg>